# xmcd CD database file
#
# Track frame offsets:
#	150
#	15888
#	37742
#	48149
#	63134
#	75193
#	89456
#	104196
#	118805
#	133200
#	149666
#	160645
#	174791
#	186563
#	201502
#	217529
#	230624
#	251693
#
# Disc length: 3541 seconds
#
# Revision: 0
# Processed by: cddbd v1.5.2PL0 Copyright (c) Steve Scherf et al.
# Submitted via: CDex 1.70beta2
#
DISCID=ee0dd312
DTITLE=Various Artist - The Million Sellers of the 30s 1934
DYEAR=2006
DGENRE=Jazz
TTITLE0=Cocktails For Two - Duke Ellington and His Orchestra
TTITLE1=Deep Purple - Paul Whiteman and His Concert Orchestra
TTITLE2=Got A Date With An Angel - Hal Kemp and His Orchestra
TTITLE3=I Only Have Eyes For You - Eddy Duchin and His Orchestra
TTITLE4=I Wish I Were Twins - Fats Waller and His Rhythm
TTITLE5=Jitter Bug - Cab Calloway and His Orchestra
TTITLE6=June In January - Bing Crosby
TTITLE7=Little Man, You've Had A Busy Day - Paul Robeson
TTITLE8=Love In Bloom - Bing Crosby
TTITLE9=Moon Glow - Benny Goodman and His Orchestra
TTITLE10=Sing As We Go - Gracie Fields
TTITLE11=Stop, Look And Listen - The Dorsey Brothers Orchestra
TTITLE12=Swing It Sister - The Mills Brothers
TTITLE13=The Old Spinning Wheel - Ray Noble and His Orchestra
TTITLE14=The Very Thought Of You - Al Bowlly
TTITLE15=Waltz From The Merry Widow - Jeanette MacDonald
TTITLE16=Stardust - Paul Whiteman and His Orchestra
TTITLE17=Sleepy Head - The Mills Brothers
EXTD=YEAR: 2006
EXTT0=
EXTT1=
EXTT2=
EXTT3=
EXTT4=
EXTT5=
EXTT6=
EXTT7=
EXTT8=
EXTT9=
EXTT10=
EXTT11=
EXTT12=
EXTT13=
EXTT14=
EXTT15=
EXTT16=
EXTT17=
PLAYORDER=
